<svg id="Layer_1" data-name="Layer 1" xmlns="http://www.w3.org/2000/svg" xmlns:xlink="http://www.w3.org/1999/xlink" viewBox="0 0 161.86 48.05"><defs><style>.cls-1{mask:url(#mask);}.cls-2{mix-blend-mode:multiply;fill:url(#linear-gradient);}.cls-3{fill:#fff;}.cls-4{fill:#010101;}.cls-5{mask:url(#mask-2);}.cls-6{fill:url(#linear-gradient-2);}.cls-7{filter:url(#luminosity-noclip-2);}.cls-8{filter:url(#luminosity-noclip);}</style><filter id="luminosity-noclip" x="125.09" y="-8277.4" width="86.31" height="32766" filterUnits="userSpaceOnUse" color-interpolation-filters="sRGB"><feFlood flood-color="#fff" result="bg"/><feBlend in="SourceGraphic" in2="bg"/></filter><mask id="mask" x="125.09" y="-8277.4" width="86.31" height="32766" maskUnits="userSpaceOnUse"><g class="cls-8"/></mask><linearGradient id="linear-gradient" x1="5265.65" y1="4951.55" x2="5265.65" y2="4994.78" gradientTransform="matrix(1, 0, 0, -1, -5094.7, 5063.39)" gradientUnits="userSpaceOnUse"><stop offset="0" stop-color="#1a1a1a"/><stop offset="0.12" stop-color="#262626"/><stop offset="0.31" stop-color="#3a3a3a"/><stop offset="0.53" stop-color="#515151"/><stop offset="0.78" stop-color="#6b6b6b"/><stop offset="1" stop-color="#828282"/></linearGradient><filter id="luminosity-noclip-2" x="125.09" y="60.87" width="86.31" height="47.99" filterUnits="userSpaceOnUse" color-interpolation-filters="sRGB"><feFlood flood-color="#fff" result="bg"/><feBlend in="SourceGraphic" in2="bg"/></filter><mask id="mask-2" x="75.56" y="0" width="86.31" height="47.99" maskUnits="userSpaceOnUse"><g class="cls-7"><g transform="translate(-49.54 -60.87)"><g class="cls-1"><path class="cls-2" d="M205.7,60.87l-80.61,0,31.6,47.95,49,0a5.68,5.68,0,0,0,5.67-5.67l0-36.63A5.68,5.68,0,0,0,205.7,60.87Z"/></g></g></g></mask><linearGradient id="linear-gradient-2" x1="5265.65" y1="4951.55" x2="5265.65" y2="4994.78" gradientTransform="matrix(1, 0, 0, -1, -5094.7, 5063.39)" gradientUnits="userSpaceOnUse"><stop offset="0" stop-color="#1a1a1a"/><stop offset="0.12" stop-color="#212121"/><stop offset="0.31" stop-color="#353635"/><stop offset="0.53" stop-color="#575858"/><stop offset="0.78" stop-color="#858585"/><stop offset="1" stop-color="#b4b4b4"/></linearGradient></defs><title>app-store</title><path class="cls-3" d="M210.32,103.17a4.59,4.59,0,0,1-4.6,4.6l-150.5.08a4.6,4.6,0,0,1-4.61-4.59l0-36.63a4.61,4.61,0,0,1,4.6-4.6l150.5-.08a4.6,4.6,0,0,1,4.6,4.6l0,36.63Z" transform="translate(-49.54 -60.87)"/><path d="M205.73,108.84l-150.5.08a5.67,5.67,0,0,1-5.68-5.66l0-36.63A5.68,5.68,0,0,1,55.21,61l150.5-.08a5.68,5.68,0,0,1,5.68,5.67l0,36.63a5.67,5.67,0,0,1-5.67,5.67Z" transform="translate(-49.54 -60.87)"/><path class="cls-4" d="M210.32,103.17a4.59,4.59,0,0,1-4.6,4.6l-150.5.08a4.6,4.6,0,0,1-4.61-4.59l0-36.63a4.61,4.61,0,0,1,4.6-4.6l150.5-.08a4.6,4.6,0,0,1,4.6,4.6l0,36.63Z" transform="translate(-49.54 -60.87)"/><path class="cls-3" d="M85.68,84.67A7,7,0,0,1,89,78.83a7.12,7.12,0,0,0-5.61-3c-2.36-.25-4.65,1.41-5.85,1.41s-3.08-1.39-5.07-1.34a7.47,7.47,0,0,0-6.28,3.84c-2.72,4.71-.68,11.62,1.92,15.42C69.4,97,70.93,99.08,72.92,99s2.68-1.24,5-1.24,3,1.24,5,1.19,3.41-1.87,4.66-3.75a15.39,15.39,0,0,0,2.13-4.35A6.72,6.72,0,0,1,85.68,84.67Z" transform="translate(-49.54 -60.87)"/><path class="cls-3" d="M81.84,73.3A6.85,6.85,0,0,0,83.4,68.4a7,7,0,0,0-4.51,2.33,6.51,6.51,0,0,0-1.6,4.72A5.76,5.76,0,0,0,81.84,73.3Z" transform="translate(-49.54 -60.87)"/><g class="cls-5"><path class="cls-6" d="M205.7,60.87l-80.61,0,31.6,47.95,49,0a5.68,5.68,0,0,0,5.67-5.67l0-36.63A5.68,5.68,0,0,0,205.7,60.87Z" transform="translate(-49.54 -60.87)"/></g><path class="cls-3" d="M113.92,98.71H111.2L109.71,94h-5.19l-1.42,4.69h-2.65l5.13-16h3.17Zm-4.67-6.65-1.35-4.17q-.21-.64-.81-3h0q-.24,1-.76,3L105,92.06Z" transform="translate(-49.54 -60.87)"/><path class="cls-3" d="M127.11,92.81a6.52,6.52,0,0,1-1.59,4.64A4.68,4.68,0,0,1,122,99a3.55,3.55,0,0,1-3.29-1.63v6h-2.56V91q0-1.84-.1-3.78h2.25l.14,1.82h0a4.55,4.55,0,0,1,7.28-.46A6.36,6.36,0,0,1,127.11,92.81Zm-2.61.1a4.74,4.74,0,0,0-.76-2.77A2.62,2.62,0,0,0,121.52,89a2.66,2.66,0,0,0-1.72.63,2.91,2.91,0,0,0-1,1.65,3.35,3.35,0,0,0-.12.78V94a3.08,3.08,0,0,0,.77,2.12,2.55,2.55,0,0,0,2,.86,2.62,2.62,0,0,0,2.25-1.11A4.9,4.9,0,0,0,124.51,92.9Z" transform="translate(-49.54 -60.87)"/><path class="cls-3" d="M140.35,92.8a6.52,6.52,0,0,1-1.59,4.64A4.68,4.68,0,0,1,135.21,99a3.55,3.55,0,0,1-3.29-1.63v6h-2.56V91q0-1.84-.1-3.78h2.25l.14,1.82h0a4.55,4.55,0,0,1,7.28-.46A6.37,6.37,0,0,1,140.35,92.8Zm-2.61.1a4.74,4.74,0,0,0-.76-2.77A2.62,2.62,0,0,0,134.76,89a2.66,2.66,0,0,0-1.72.63,2.91,2.91,0,0,0-1,1.65,3.39,3.39,0,0,0-.12.78V94a3.09,3.09,0,0,0,.77,2.12,2.56,2.56,0,0,0,2,.86,2.62,2.62,0,0,0,2.25-1.11A4.91,4.91,0,0,0,137.75,92.9Z" transform="translate(-49.54 -60.87)"/><path class="cls-3" d="M155.15,94.21a4.26,4.26,0,0,1-1.42,3.32,6.29,6.29,0,0,1-4.35,1.4,7.6,7.6,0,0,1-4.13-1l.59-2.13a7.12,7.12,0,0,0,3.7,1,3.48,3.48,0,0,0,2.25-.65,2.13,2.13,0,0,0,.81-1.74,2.23,2.23,0,0,0-.67-1.63,6.17,6.17,0,0,0-2.2-1.23Q145.53,90,145.53,87A4,4,0,0,1,147,83.75a5.85,5.85,0,0,1,3.92-1.26,7.75,7.75,0,0,1,3.62.76l-.64,2.09a6.33,6.33,0,0,0-3.07-.73,3.12,3.12,0,0,0-2.12.66,1.9,1.9,0,0,0-.64,1.45,2,2,0,0,0,.74,1.56,8.28,8.28,0,0,0,2.32,1.23,7.86,7.86,0,0,1,3,1.94A4.06,4.06,0,0,1,155.15,94.21Z" transform="translate(-49.54 -60.87)"/><path class="cls-3" d="M163.63,89.09h-2.82v5.59q0,2.13,1.49,2.13a4.53,4.53,0,0,0,1.14-.12l.07,1.94a5.79,5.79,0,0,1-2,.28,3.06,3.06,0,0,1-2.37-.92,4.54,4.54,0,0,1-.85-3.1v-5.8h-1.68V87.18h1.68V85.07l2.51-.76v2.87h2.82Z" transform="translate(-49.54 -60.87)"/><path class="cls-3" d="M176.32,92.83a6.32,6.32,0,0,1-1.51,4.36,5.41,5.41,0,0,1-4.21,1.75,5.15,5.15,0,0,1-4-1.68A6.12,6.12,0,0,1,165,93a6.26,6.26,0,0,1,1.55-4.38,5.38,5.38,0,0,1,4.18-1.71,5.25,5.25,0,0,1,4.07,1.68A6.05,6.05,0,0,1,176.32,92.83Zm-2.65.06a5.15,5.15,0,0,0-.69-2.71,2.53,2.53,0,0,0-2.3-1.37,2.57,2.57,0,0,0-2.34,1.37,5.24,5.24,0,0,0-.68,2.76,5.14,5.14,0,0,0,.69,2.72,2.62,2.62,0,0,0,4.62,0A5.15,5.15,0,0,0,173.67,92.89Z" transform="translate(-49.54 -60.87)"/><path class="cls-3" d="M184.64,89.41a4.44,4.44,0,0,0-.81-.07,2.42,2.42,0,0,0-2.08,1,3.84,3.84,0,0,0-.64,2.27v6h-2.56V90.79q0-2-.08-3.62h2.23l.09,2.2h.07a3.94,3.94,0,0,1,1.28-1.82,3.09,3.09,0,0,1,1.85-.62,4.05,4.05,0,0,1,.64,0v2.44Z" transform="translate(-49.54 -60.87)"/><path class="cls-3" d="M196.07,92.37a6,6,0,0,1-.09,1.16h-7.67a3.34,3.34,0,0,0,1.11,2.61,3.8,3.8,0,0,0,2.51.8,8.49,8.49,0,0,0,3.1-.55l.4,1.77a9.61,9.61,0,0,1-3.86.71,5.59,5.59,0,0,1-4.21-1.57,5.82,5.82,0,0,1-1.53-4.23,6.59,6.59,0,0,1,1.42-4.33,4.9,4.9,0,0,1,4-1.85,4.29,4.29,0,0,1,3.77,1.84A6.22,6.22,0,0,1,196.07,92.37Zm-2.44-.66a3.46,3.46,0,0,0-.5-2,2.23,2.23,0,0,0-2-1.07,2.43,2.43,0,0,0-2,1,3.81,3.81,0,0,0-.76,2h5.33Z" transform="translate(-49.54 -60.87)"/><path class="cls-3" d="M103.77,77.11a16.38,16.38,0,0,1-1.84-.09V69.3a13.93,13.93,0,0,1,2.16-.16c2.93,0,4.28,1.44,4.29,3.79C108.38,75.64,106.79,77.11,103.77,77.11Zm.43-7a5.15,5.15,0,0,0-1,.08v5.87a6.62,6.62,0,0,0,.85,0c1.92,0,3-1.1,3-3.14A2.56,2.56,0,0,0,104.2,70.13Z" transform="translate(-49.54 -60.87)"/><path class="cls-3" d="M112.59,77.17a2.69,2.69,0,0,1-2.73-2.91,2.76,2.76,0,0,1,2.82-3,2.67,2.67,0,0,1,2.73,2.9A2.77,2.77,0,0,1,112.59,77.17Zm0-5c-.91,0-1.49.85-1.49,2s.6,2,1.48,2,1.48-.91,1.48-2S113.52,72.18,112.64,72.18Z" transform="translate(-49.54 -60.87)"/><path class="cls-3" d="M124.83,71.37,123.06,77h-1.15l-.73-2.46a18.4,18.4,0,0,1-.46-1.83h0a12.2,12.2,0,0,1-.45,1.83L119.47,77H118.3l-1.67-5.66h1.29l.64,2.69q.23,1,.39,1.82h0a18.5,18.5,0,0,1,.46-1.8l.8-2.7h1L122,74c.19.64.34,1.27.46,1.86h0a16.26,16.26,0,0,1,.38-1.86l.69-2.64h1.23Z" transform="translate(-49.54 -60.87)"/><path class="cls-3" d="M131.35,77h-1.26V73.78c0-1-.38-1.5-1.14-1.5a1.31,1.31,0,0,0-1.26,1.39V77h-1.26V73c0-.5,0-1,0-1.62h1.11l.06.87h0a2,2,0,0,1,1.79-1c1.19,0,2,.91,2,2.38V77Z" transform="translate(-49.54 -60.87)"/><path class="cls-3" d="M134.81,77h-1.26V68.77h1.26Z" transform="translate(-49.54 -60.87)"/><path class="cls-3" d="M139.4,77.15a2.69,2.69,0,0,1-2.72-2.91,2.75,2.75,0,0,1,2.81-3,2.67,2.67,0,0,1,2.73,2.9A2.77,2.77,0,0,1,139.4,77.15Zm0-5c-.91,0-1.49.85-1.49,2s.6,2,1.48,2,1.48-.91,1.48-2S140.33,72.17,139.44,72.17Z" transform="translate(-49.54 -60.87)"/><path class="cls-3" d="M147.17,77l-.09-.65h0a1.93,1.93,0,0,1-1.65.78,1.65,1.65,0,0,1-1.73-1.66c0-1.4,1.21-2.12,3.3-2.12v-.1c0-.74-.4-1.12-1.18-1.12a2.65,2.65,0,0,0-1.48.42l-.26-.83a3.62,3.62,0,0,1,1.94-.49c1.48,0,2.22.78,2.22,2.34v2.08A8.41,8.41,0,0,0,148.3,77h-1.13ZM147,74.2c-1.4,0-2.1.34-2.1,1.14a.8.8,0,0,0,.86.88A1.2,1.2,0,0,0,147,75.07Z" transform="translate(-49.54 -60.87)"/><path class="cls-3" d="M154.33,77l-.06-.91h0a1.9,1.9,0,0,1-1.82,1c-1.36,0-2.37-1.2-2.38-2.89s1-3,2.48-3a1.7,1.7,0,0,1,1.6.77h0V68.76h1.26v6.73c0,.55,0,1.06,0,1.52Zm-.19-3.33a1.37,1.37,0,0,0-1.33-1.47c-.93,0-1.5.83-1.5,2s.59,1.92,1.48,1.92a1.41,1.41,0,0,0,1.35-1.5Z" transform="translate(-49.54 -60.87)"/><path class="cls-3" d="M163.38,77.14a2.69,2.69,0,0,1-2.72-2.91,2.75,2.75,0,0,1,2.81-3,2.67,2.67,0,0,1,2.73,2.9A2.77,2.77,0,0,1,163.38,77.14Zm0-5c-.91,0-1.49.85-1.49,2s.59,2,1.48,2,1.48-.91,1.48-2S164.31,72.15,163.42,72.16Z" transform="translate(-49.54 -60.87)"/><path class="cls-3" d="M173,77h-1.26V73.76c0-1-.39-1.5-1.14-1.5a1.3,1.3,0,0,0-1.25,1.39V77H168V73c0-.5,0-1,0-1.62h1.11l.06.87h0a2,2,0,0,1,1.79-1c1.19,0,2,.91,2,2.38Z" transform="translate(-49.54 -60.87)"/><path class="cls-3" d="M181.41,72.29H180V75c0,.7.24,1,.73,1a2.49,2.49,0,0,0,.56-.06l0,1a2.78,2.78,0,0,1-1,.14c-1,0-1.58-.55-1.58-2V72.29H178v-.94h.83v-1l1.23-.37v1.41h1.38Z" transform="translate(-49.54 -60.87)"/><path class="cls-3" d="M188.07,77h-1.26V73.77c0-1-.38-1.52-1.14-1.52a1.23,1.23,0,0,0-1.26,1.34V77h-1.26V68.75h1.26v3.4h0a1.91,1.91,0,0,1,1.7-.92c1.2,0,1.93.93,1.93,2.41Z" transform="translate(-49.54 -60.87)"/><path class="cls-3" d="M194.88,74.47h-3.77a1.62,1.62,0,0,0,1.78,1.67,4.24,4.24,0,0,0,1.52-.27l.2.87a4.72,4.72,0,0,1-1.9.35,2.63,2.63,0,0,1-2.82-2.85,2.76,2.76,0,0,1,2.67-3c1.45,0,2.35,1.07,2.35,2.69A2.46,2.46,0,0,1,194.88,74.47Zm-1.15-.9c0-.87-.44-1.49-1.24-1.49a1.49,1.49,0,0,0-1.37,1.49Z" transform="translate(-49.54 -60.87)"/></svg>